PathFileType	4	(X/Y/Z)	C:/Users/opensim2020/Desktop/walking_exp_matlab/subject02_walking06_straight_02.trc																																																																																																																									
DataRate	CameraRate	NumFrames	NumMarkers	Units	OrigDataRate	OrigDataStartFrame	OrigNumFrames																																																																																																																					
100	100	7	41	mm	100	1477	183																																																																																																																					
Frame#	Time	LFHD			RFHD			LBHD			RBHD			C7			T10			CLAV			STRN			RBAK			LSHO			LUPA			LELB			LFRM			LWRA			LWRB			LFIN			RSHO			RUPA			RELB			RFRM			RWRA			RWRB			RFIN			LASI			RASI			LPSI			RPSI			LTHI			LKNE			LTIB			LANK			LHEE			LTOE			RTHI			RKNE			RTIB			RANK			RHEE			RTOE			*39			*40		
		X1	Y1	Z1	X2	Y2	Z2	X3	Y3	Z3	X4	Y4	Z4	X5	Y5	Z5	X6	Y6	Z6	X7	Y7	Z7	X8	Y8	Z8	X9	Y9	Z9	X10	Y10	Z10	X11	Y11	Z11	X12	Y12	Z12	X13	Y13	Z13	X14	Y14	Z14	X15	Y15	Z15	X16	Y16	Z16	X17	Y17	Z17	X18	Y18	Z18	X19	Y19	Z19	X20	Y20	Z20	X21	Y21	Z21	X22	Y22	Z22	X23	Y23	Z23	X24	Y24	Z24	X25	Y25	Z25	X26	Y26	Z26	X27	Y27	Z27	X28	Y28	Z28	X29	Y29	Z29	X30	Y30	Z30	X31	Y31	Z31	X32	Y32	Z32	X33	Y33	Z33	X34	Y34	Z34	X35	Y35	Z35	X36	Y36	Z36	X37	Y37	Z37	X38	Y38	Z38	X39	Y39	Z39	X40	Y40	Z40	X41	Y41	Z41
																																																																																																																												
46	0.45	-304.26315	1748.03174	922.03577	-305.08154	1736.79102	1065.80249	-428.13248	1661.74365	915.44391	-440.66644	1647.74609	1058.16199	-475.75946	1527.33838	993.89014	-522.09601	1250.3385	1004.09528	-335.11514	1461.17944	989.74432	-278.50848	1291.37878	1010.23157	-532.25305	1354.49573	1062.74255	-397.87463	1492.84863	816.36938	-399.15097	1287.29504	740.60413	-394.86688	1146.20837	734.92932	-376.8205	1015.91241	726.67096	-316.0799	894.25464	764.47083	-359.41205	894.35077	727.91345	-336.22281	832.26428	725.48895	-403.85623	1503.95044	1182.68372	-424.03781	1318.02258	1277.9613	-392.2276	1175.36914	1310.33984	-337.05896	1066.64233	1328.74866	-265.25519	952.67346	1304.02515	-304.81876	941.01086	1343.20203	-255.45712	887.1991	1339.35718	-272.03519	995.4162	887.44763	-301.9386	972.86713	1142.57593	-489.68518	1038.78772	943.0354	-507.28006	1033.58472	1056.71899	-307.88605	683.47858	836.00336	-329.35553	480.42892	873.14374	-377.53439	290.11478	877.48962	-370.86404	71.17947	926.81744	-408.03586	44.6333	978.58911	-214.04018	35.31634	921.33575	-382.93237	670.59564	1217.59485	-377.79053	473.17529	1213.49622	-526.93158	369.21002	1196.70154	-663.07343	239.08395	1147.13062	-703.70789	216.76186	1076.67542	-624.9809	89.62446	1196.82764	-412.82886	1808.89136	1007.23035	-2845.79004	1033.95056	3357.26636
47	0.46	-294.229	1748.76685	921.89594	-295.51785	1737.67993	1065.41687	-418.3652	1662.849	914.86713	-431.27383	1648.88025	1058.01563	-465.91977	1528.3634	992.85529	-512.46191	1251.34644	1002.45288	-325.396	1462.02551	989.15918	-269.07632	1292.0874	1009.39569	-522.71655	1355.20703	1060.67737	-387.272	1494.4303	815.63281	-385.0029	1288.87109	739.32581	-378.57132	1147.94141	732.99036	-356.15109	1017.72345	725.82184	-292.40106	898.66571	764.88647	-335.16559	896.90045	727.74847	-309.82126	835.86218	725.60577	-394.70828	1504.41638	1181.75342	-416.32608	1318.57397	1276.73694	-386.03088	1175.52234	1308.67798	-332.3602	1065.95691	1326.64233	-262.38757	950.97601	1301.9762	-302.02621	939.92468	1341.21289	-253.56334	885.14465	1337.06116	-263.21173	995.42004	886.56635	-292.96265	974.68329	1141.91638	-480.55325	1039.74194	941.87732	-498.17801	1034.71814	1055.39063	-303.24081	683.09839	835.48615	-327.43207	480.28067	872.5459	-376.97617	290.31445	877.3916	-370.80795	71.11264	927.18195	-407.87784	44.74565	978.79913	-213.97029	35.30321	921.14606	-367.80136	672.14374	1217.65442	-358.69485	474.9483	1212.73376	-505.90692	368.77396	1195.50146	-639.63245	235.81032	1146.37549	-680.19897	211.43172	1076.16272	-597.01953	88.62283	1197.89758	-403.16269	1809.88623	1006.96234	-2845.22339	1033.80457	3360.3208
48	0.47	-284.41833	1749.70007	921.67712	-285.96713	1738.40588	1065.25562	-408.5632	1663.68872	914.35663	-421.67233	1649.61926	1057.53259	-456.17905	1529.22925	991.91711	-502.98096	1252.3175	1000.90021	-315.6524	1462.76367	988.62872	-259.69852	1292.70398	1008.60126	-513.57373	1355.88708	1059.36536	-376.56799	1495.7666	814.93005	-371.65509	1290.68372	738.25757	-361.67282	1149.77637	731.43799	-335.60336	1020.06708	724.95776	-268.3291	903.43494	765.04645	-311.08524	899.98254	727.69757	-283.29367	840.05951	725.61279	-385.66547	1504.97461	1181.17834	-408.65024	1318.98352	1275.5293	-379.93637	1175.59705	1307.15369	-327.89044	1065.33838	1325.05664	-259.50296	949.28986	1299.91736	-299.25958	938.82941	1339.2605	-251.70686	883.25525	1334.88403	-254.51588	995.49268	885.49554	-283.72867	976.40173	1140.95459	-471.55161	1040.52869	940.92151	-489.10229	1035.6842	1054.45581	-298.94986	682.73041	834.92383	-325.50708	480.20084	872.02606	-376.35867	290.58347	877.3075	-370.71136	71.17066	927.28436	-407.82974	44.84489	978.92822	-213.9122	35.22927	921.05225	-352.82129	673.72174	1217.73413	-339.83975	476.74588	1211.98694	-484.89014	367.74939	1194.49243	-615.60876	231.56686	1145.75366	-656.16547	205.06018	1075.95313	-567.68927	87.04087	1198.91797	-393.52936	1810.5553	1006.45337	-2845.1521	1033.79102	3360.27002
49	0.48	-274.88171	1750.54504	921.41498	-276.3775	1738.95715	1065.15747	-398.62192	1664.4408	913.88098	-411.83008	1649.86316	1056.57556	-446.46118	1529.92615	990.97742	-493.49167	1253.18005	999.33508	-305.94669	1463.39978	988.25134	-250.28198	1293.13867	1007.8056	-504.01184	1356.52124	1057.23328	-365.92288	1496.99133	814.42706	-358.19498	1292.6687	736.87335	-345.11246	1151.62537	729.74744	-314.9498	1022.47388	723.85443	-244.8683	908.40259	765.24957	-287.39313	903.31244	727.50116	-256.90591	844.76556	725.83496	-376.62009	1505.26831	1180.42944	-401.02557	1319.35535	1274.5387	-373.95886	1175.58997	1305.70496	-323.30447	1064.80713	1323.28577	-256.67856	947.65247	1297.9928	-296.35962	937.66016	1337.29382	-249.75676	881.46057	1332.88782	-246.1692	995.61688	884.28595	-274.33212	978.04645	1139.61768	-462.67673	1041.15405	940.20984	-479.93384	1036.48645	1053.91919	-294.70615	682.33655	834.52515	-323.51196	480.10611	871.6048	-375.47778	290.84546	877.19116	-370.68073	71.26408	927.40387	-407.74182	44.9598	978.99988	-213.86034	35.19467	920.95996	-337.98209	675.30933	1217.80225	-321.21432	478.4249	1211.15967	-463.87482	366.11505	1193.65295	-591.03162	226.4045	1145.3512	-631.31946	197.70045	1075.82251	-537.31342	84.86879	1199.75916	-383.83652	1810.96741	1006.10034	-2845.20239	1033.82471	3360.3894
50	0.49	-264.77325	1751.06848	921.7627	-266.77475	1739.34631	1065.2771	-388.65042	1665.1084	913.60052	-402.39087	1650.44946	1056.33655	-436.73001	1530.52234	990.04633	-484.08035	1253.8866	997.86963	-296.28177	1463.96338	987.81281	-241.01355	1293.53064	1007.07019	-495.70819	1357.34387	1056.36841	-355.5224	1498.33081	813.80939	-344.69461	1294.42798	735.70331	-328.63409	1153.53943	728.05243	-294.90234	1025.44617	722.95923	-221.53377	913.8017	765.77747	-263.50534	906.94629	727.63831	-230.86688	849.66772	726.00665	-367.56195	1505.28931	1179.82532	-393.52969	1319.53577	1273.4856	-368.14783	1175.45447	1304.27527	-318.98004	1063.79663	1321.54871	-253.89151	946.00476	1296.24707	-293.78458	936.52875	1335.63098	-247.77286	879.68915	1331.04773	-237.45161	995.69232	882.93182	-264.76373	979.39075	1137.95496	-454.12848	1041.49768	939.88715	-470.74301	1037.1637	1053.73828	-290.69244	681.88696	834.33691	-321.47833	480.03021	871.03827	-374.31589	291.04883	877.07269	-370.56744	71.33171	927.52679	-407.72873	45.102	979.11548	-213.79353	35.14765	920.90039	-323.28366	676.9165	1217.84119	-302.89136	480.01013	1210.40698	-442.69547	363.94604	1192.89307	-565.79669	220.40381	1145.08594	-605.63641	189.52029	1075.896	-506.11243	82.13853	1200.56897	-374.09854	1811.48669	1006.14783	NaN	NaN	NaN
51	0.5	-254.83136	1751.6145	921.98779	-257.20779	1739.56421	1065.49133	-378.68774	1665.50696	913.46387	-392.92661	1650.9342	1056.43042	-427.02637	1531.06104	989.31348	-474.62515	1254.47864	996.50842	-286.58008	1464.36023	987.38721	-231.68333	1293.73755	1006.30652	-485.55319	1357.60498	1054.20605	-345.01245	1499.42603	813.3797	-331.21469	1295.93677	734.71198	-312.28305	1155.43298	726.26746	-274.09845	1028.11353	722.04382	-197.81204	919.18817	765.96667	-239.60698	910.73596	727.6452	-205.26393	854.87616	726.58752	-358.72809	1505.3949	1179.25342	-386.01636	1319.46057	1272.12842	-362.47302	1175.37952	1303.21692	-314.77792	1062.96692	1320.31848	-251.09695	944.36884	1294.67932	-291.12286	935.31213	1333.9613	-245.72382	878.12067	1329.39783	-230.37051	995.50745	881.55963	-255.31569	980.41614	1136.03149	-445.62033	1041.73157	939.88879	-461.5675	1037.77954	1053.94299	-286.2648	681.27588	834.29602	-319.03964	479.85159	870.75439	-372.90244	291.23004	876.9552	-370.50006	71.41871	927.64209	-407.40634	45.11837	979.04053	-213.76128	35.10633	920.76898	-308.75494	678.49634	1218.00549	-284.80017	481.54486	1209.55396	-421.30725	361.22424	1192.35364	-539.88965	213.76251	1144.95532	-579.07281	180.71074	1076.01111	-474.27176	79.19615	1201.60449	-364.28326	1812.11572	1006.87646	NaN	NaN	NaN
52	0.51	-244.84918	1752.0376	922.33514	-247.53209	1739.62183	1065.75586	-368.79297	1666.19836	913.26312	-383.26965	1650.96252	1056.12036	-417.30576	1531.51819	988.6073	-465.28369	1254.99536	995.30396	-276.91943	1464.4082	987.17737	-222.36635	1293.86548	1005.64008	-476.12021	1357.91614	1052.69446	-334.49207	1500.36841	813.0199	-317.81775	1297.49475	733.64362	-296.08606	1157.34851	724.51428	-254.68329	1031.09351	721.22351	-175.70969	924.7262	766.50464	-216.39636	914.91455	727.84857	-179.60715	860.03027	727.3028	-349.78412	1505.17883	1178.68237	-378.91556	1319.55237	1271.71619	-356.84882	1174.86475	1301.70813	-310.43573	1061.96912	1318.64539	-248.26936	942.72455	1293.17224	-288.52692	934.06073	1332.31531	-243.60234	876.3161	1327.79407	-222.55133	995.422	879.91528	-245.14192	981.43646	1134.20129	-436.96719	1041.63391	939.82092	-452.36725	1038.33154	1054.44617	-281.99234	680.93292	834.14832	-316.39301	479.6543	870.7337	-371.49197	291.41711	876.93079	-370.53085	71.50112	927.78137	-407.35693	45.26928	979.21967	-213.57799	35.12504	920.63763	-294.42581	680.01025	1218.08582	-266.97455	482.97385	1208.85095	-399.77036	358.11984	1192.11389	-513.36987	206.53531	1145.03357	-551.6084	171.42657	1076.29321	-441.7897	75.73172	1202.31702	-354.52869	1812.26282	1006.57098	NaN	NaN	NaN
